HIERARCHY
ROOT Root
{
  OFFSET 0.0 0.0 0.0
  CHANNELS 6 Xposition Yposition Zposition Zrotation Yrotation Xrotation
  JOINT Hips
  {
    OFFSET 0.0 100.0 0.0
    CHANNELS 6 Xposition Yposition Zposition Zrotation Yrotation Xrotation
    JOINT Spine1
    {
      OFFSET -0.013727 5.003763 -0.053727
      CHANNELS 3 Zrotation Yrotation Xrotation
      JOINT Spine2
      {
        OFFSET -0.0 7.125301 -0.029825
        CHANNELS 3 Zrotation Yrotation Xrotation
        JOINT Chest
        {
          OFFSET -1e-06 7.550063 -0.815971
          CHANNELS 3 Zrotation Yrotation Xrotation
          JOINT Neck1
          {
            OFFSET -0.181677 26.311295 -0.553348
            CHANNELS 3 Zrotation Yrotation Xrotation
            JOINT Neck2
            {
              OFFSET -3e-06 7.709397 2.302585
              CHANNELS 3 Zrotation Yrotation Xrotation
              JOINT Head
              {
                OFFSET -5e-06 6.128916 1.953709
                CHANNELS 3 Zrotation Yrotation Xrotation
                JOINT HeadEnd
                {
                  OFFSET 0.003598 16.065403 -1.835379
                  CHANNELS 3 Zrotation Yrotation Xrotation
                }
                JOINT Jaw
                {
                  OFFSET 0.002637 0.475592 3.094941
                  CHANNELS 3 Zrotation Yrotation Xrotation
                }
                JOINT LeftEye
                {
                  OFFSET 3.206381 5.380205 7.586883
                  CHANNELS 3 Zrotation Yrotation Xrotation
                }
                JOINT RightEye
                {
                  OFFSET -3.22244 5.361869 7.558234
                  CHANNELS 3 Zrotation Yrotation Xrotation
                }
              }
            }
          }
          JOINT LeftShoulder
          {
            OFFSET 1.621652 23.237164 5.113413
            CHANNELS 3 Zrotation Yrotation Xrotation
            JOINT LeftArm
            {
              OFFSET 14.919846 2e-06 -5.502326
              CHANNELS 3 Zrotation Yrotation Xrotation
              JOINT LeftForeArm
              {
                OFFSET 28.739307 0.0 -0.002588
                CHANNELS 3 Zrotation Yrotation Xrotation
                JOINT LeftHand
                {
                  OFFSET 27.093981 -1e-06 0.002609
                  CHANNELS 3 Zrotation Yrotation Xrotation
                  JOINT LeftHandThumb1
                  {
                    OFFSET 2.276482 -1.392045 3.191413
                    CHANNELS 3 Zrotation Yrotation Xrotation
                    JOINT LeftHandThumb2
                    {
                      OFFSET 4.012836 -1.828127 1.641654
                      CHANNELS 3 Zrotation Yrotation Xrotation
                      JOINT LeftHandThumb3
                      {
                        OFFSET 2.798515 0.0 -3e-06
                        CHANNELS 3 Zrotation Yrotation Xrotation
                        JOINT LeftHandThumbEnd
                        {
                          OFFSET 3.180793 -4e-06 4e-06
                          CHANNELS 3 Zrotation Yrotation Xrotation
                        }
                      }
                    }
                  }
                  JOINT LeftHandIndex1
                  {
                    OFFSET 3.247555 -0.531998 2.296169
                    CHANNELS 3 Zrotation Yrotation Xrotation
                    JOINT LeftHandIndex2
                    {
                      OFFSET 6.364578 0.01206 0.1786
                      CHANNELS 3 Zrotation Yrotation Xrotation
                      JOINT LeftHandIndex3
                      {
                        OFFSET 3.662364 0.0 0.0
                        CHANNELS 3 Zrotation Yrotation Xrotation
                        JOINT LeftHandIndex4
                        {
                          OFFSET 2.329242 4e-06 4e-06
                          CHANNELS 3 Zrotation Yrotation Xrotation
                          JOINT LeftHandIndexEnd
                          {
                            OFFSET 2.759615 -0.180537 -0.113024
                            CHANNELS 3 Zrotation Yrotation Xrotation
                          }
                        }
                      }
                    }
                  }
                  JOINT LeftHandMiddle1
                  {
                    OFFSET 3.163495 0.240981 1.000332
                    CHANNELS 3 Zrotation Yrotation Xrotation
                    JOINT LeftHandMiddle2
                    {
                      OFFSET 6.19078 -0.259278 -1.002548
                      CHANNELS 3 Zrotation Yrotation Xrotation
                      JOINT LeftHandMiddle3
                      {
                        OFFSET 4.35652 -4e-06 -1e-06
                        CHANNELS 3 Zrotation Yrotation Xrotation
                        JOINT LeftHandMiddle4
                        {
                          OFFSET 2.996877 -8e-06 0.0
                          CHANNELS 3 Zrotation Yrotation Xrotation
                          JOINT LeftHandMiddleEnd
                          {
                            OFFSET 2.304287 -0.294569 -0.031741
                            CHANNELS 3 Zrotation Yrotation Xrotation
                          }
                        }
                      }
                    }
                  }
                  JOINT LeftHandRing1
                  {
                    OFFSET 2.882643 -0.053652 -0.322543
                    CHANNELS 3 Zrotation Yrotation Xrotation
                    JOINT LeftHandRing2
                    {
                      OFFSET 5.854541 -0.486202 -1.373841
                      CHANNELS 3 Zrotation Yrotation Xrotation
                      JOINT LeftHandRing3
                      {
                        OFFSET 4.350578 0.0 3e-06
                        CHANNELS 3 Zrotation Yrotation Xrotation
                        JOINT LeftHandRing4
                        {
                          OFFSET 2.651321 7e-06 2e-06
                          CHANNELS 3 Zrotation Yrotation Xrotation
                          JOINT LeftHandRingEnd
                          {
                            OFFSET 1.936105 0.077687 -7.1e-05
                            CHANNELS 3 Zrotation Yrotation Xrotation
                          }
                        }
                      }
                    }
                  }
                  JOINT LeftHandPinky1
                  {
                    OFFSET 2.8655 -0.310005 -1.600378
                    CHANNELS 3 Zrotation Yrotation Xrotation
                    JOINT LeftHandPinky2
                    {
                      OFFSET 5.087849 -1.331141 -1.77123
                      CHANNELS 3 Zrotation Yrotation Xrotation
                      JOINT LeftHandPinky3
                      {
                        OFFSET 3.070974 4e-06 0.0
                        CHANNELS 3 Zrotation Yrotation Xrotation
                        JOINT LeftHandPinky4
                        {
                          OFFSET 1.549672 0.0 1e-06
                          CHANNELS 3 Zrotation Yrotation Xrotation
                          JOINT LeftHandPinkyEnd
                          {
                            OFFSET 1.944893 -0.157802 0.057219
                            CHANNELS 3 Zrotation Yrotation Xrotation
                          }
                        }
                      }
                    }
                  }
                }
              }
            }
          }
          JOINT RightShoulder
          {
            OFFSET -1.380118 23.180309 5.214158
            CHANNELS 3 Zrotation Yrotation Xrotation
            JOINT RightArm
            {
              OFFSET -15.037196 1.2e-05 -5.545604
              CHANNELS 3 Zrotation Yrotation Xrotation
              JOINT RightForeArm
              {
                OFFSET -28.736639 2e-06 -0.002597
                CHANNELS 3 Zrotation Yrotation Xrotation
                JOINT RightHand
                {
                  OFFSET -27.133619 -0.0 0.002613
                  CHANNELS 3 Zrotation Yrotation Xrotation
                  JOINT RightHandThumb1
                  {
                    OFFSET -2.274032 -1.383988 3.163127
                    CHANNELS 3 Zrotation Yrotation Xrotation
                    JOINT RightHandThumb2
                    {
                      OFFSET -4.011429 -1.827466 1.640914
                      CHANNELS 3 Zrotation Yrotation Xrotation
                      JOINT RightHandThumb3
                      {
                        OFFSET -2.794935 -4e-06 -3e-06
                        CHANNELS 3 Zrotation Yrotation Xrotation
                        JOINT RightHandThumbEnd
                        {
                          OFFSET -3.183852 4e-06 1e-06
                          CHANNELS 3 Zrotation Yrotation Xrotation
                        }
                      }
                    }
                  }
                  JOINT RightHandIndex1
                  {
                    OFFSET -3.253266 -0.520057 2.282866
                    CHANNELS 3 Zrotation Yrotation Xrotation
                    JOINT RightHandIndex2
                    {
                      OFFSET -6.341917 0.012471 0.178266
                      CHANNELS 3 Zrotation Yrotation Xrotation
                      JOINT RightHandIndex3
                      {
                        OFFSET -3.654871 -8e-06 -0.0
                        CHANNELS 3 Zrotation Yrotation Xrotation
                        JOINT RightHandIndex4
                        {
                          OFFSET -2.327586 0.0 1e-06
                          CHANNELS 3 Zrotation Yrotation Xrotation
                          JOINT RightHandIndexEnd
                          {
                            OFFSET -2.76179 -0.180656 -0.113078
                            CHANNELS 3 Zrotation Yrotation Xrotation
                          }
                        }
                      }
                    }
                  }
                  JOINT RightHandMiddle1
                  {
                    OFFSET -3.168106 0.246593 1.00103
                    CHANNELS 3 Zrotation Yrotation Xrotation
                    JOINT RightHandMiddle2
                    {
                      OFFSET -6.180828 -0.258836 -1.000895
                      CHANNELS 3 Zrotation Yrotation Xrotation
                      JOINT RightHandMiddle3
                      {
                        OFFSET -4.348901 0.0 -0.0
                        CHANNELS 3 Zrotation Yrotation Xrotation
                        JOINT RightHandMiddle4
                        {
                          OFFSET -3.00024 -4e-06 -2e-06
                          CHANNELS 3 Zrotation Yrotation Xrotation
                          JOINT RightHandMiddleEnd
                          {
                            OFFSET -2.30252 -0.29437 -0.031706
                            CHANNELS 3 Zrotation Yrotation Xrotation
                          }
                        }
                      }
                    }
                  }
                  JOINT RightHandRing1
                  {
                    OFFSET -2.88569 -0.067952 -0.308858
                    CHANNELS 3 Zrotation Yrotation Xrotation
                    JOINT RightHandRing2
                    {
                      OFFSET -5.854198 -0.48613 -1.373731
                      CHANNELS 3 Zrotation Yrotation Xrotation
                      JOINT RightHandRing3
                      {
                        OFFSET -4.33881 -4e-06 -0.0
                        CHANNELS 3 Zrotation Yrotation Xrotation
                        JOINT RightHandRing4
                        {
                          OFFSET -2.654903 -4e-06 4e-06
                          CHANNELS 3 Zrotation Yrotation Xrotation
                          JOINT RightHandRingEnd
                          {
                            OFFSET -1.933568 0.077527 -5.2e-05
                            CHANNELS 3 Zrotation Yrotation Xrotation
                          }
                        }
                      }
                    }
                  }
                  JOINT RightHandPinky1
                  {
                    OFFSET -2.866425 -0.342796 -1.584145
                    CHANNELS 3 Zrotation Yrotation Xrotation
                    JOINT RightHandPinky2
                    {
                      OFFSET -5.091371 -1.332055 -1.772385
                      CHANNELS 3 Zrotation Yrotation Xrotation
                      JOINT RightHandPinky3
                      {
                        OFFSET -3.062664 -4e-06 1e-06
                        CHANNELS 3 Zrotation Yrotation Xrotation
                        JOINT RightHandPinky4
                        {
                          OFFSET -1.546529 4e-06 -2e-06
                          CHANNELS 3 Zrotation Yrotation Xrotation
                          JOINT RightHandPinkyEnd
                          {
                            OFFSET -1.945119 -0.157718 0.057211
                            CHANNELS 3 Zrotation Yrotation Xrotation
                          }
                        }
                      }
                    }
                  }
                }
              }
            }
          }
        }
      }
    }
    JOINT LeftLeg
    {
      OFFSET 10.043214 -8.434526 2.595655
      CHANNELS 3 Zrotation Yrotation Xrotation
      JOINT LeftShin
      {
        OFFSET -1e-06 -43.221752 -0.802913
        CHANNELS 3 Zrotation Yrotation Xrotation
        JOINT LeftFoot
        {
          OFFSET 1e-06 -42.155094 -3.481523
          CHANNELS 3 Zrotation Yrotation Xrotation
          JOINT LeftToeBase
          {
            OFFSET 0.0 -5.059472 13.231529
            CHANNELS 3 Zrotation Yrotation Xrotation
            JOINT LeftToeEnd
            {
              OFFSET -0.009607 -1.647619 6.513017
              CHANNELS 3 Zrotation Yrotation Xrotation
            }
          }
        }
      }
    }
    JOINT RightLeg
    {
      OFFSET -10.047278 -8.29526 2.620317
      CHANNELS 3 Zrotation Yrotation Xrotation
      JOINT RightShin
      {
        OFFSET 1e-06 -43.362206 -0.805556
        CHANNELS 3 Zrotation Yrotation Xrotation
        JOINT RightFoot
        {
          OFFSET 2e-06 -42.117393 -3.478398
          CHANNELS 3 Zrotation Yrotation Xrotation
          JOINT RightToeBase
          {
            OFFSET -0.0 -5.079609 13.284196
            CHANNELS 3 Zrotation Yrotation Xrotation
            JOINT RightToeEnd
            {
              OFFSET 0.009532 -1.634378 6.460591
              CHANNELS 3 Zrotation Yrotation Xrotation
            }
          }
        }
      }
    }
  }
}
MOTION
Frames: 5
Frame Time: 0.03333333333333333
0.293028 0.0 -2.848596 0.0 -0.086207 0.0 0.0 99.758507 0.0 -0.37532 -0.029072 -4.390928 1.244564 -0.051597 -0.540823 -0.273541 0.067777 -5.050472 -0.878932 -1.20462 14.144658 -7.228371 6.068233 5.095356 2.62096 11.383495 -3.227981 -0.059673 13.711584 -7.217483 7.7e-05 -2.1e-05 6e-06 0.028991 -0.187427 -0.059117 0.835636 -3.929721 -10.734083 -0.781456 3.580273 -10.703196 -15.10077 -4.451992 11.844783 -57.623192 -3.070123 18.249023 0.270288 -38.018864 0.107749 1.766834 1.750586 -18.566359 -5.882107 9.861288 0.702589 -10.936873 -0.360576 7.156206 0.0 8.774827 -1e-06 -15.767769 17.776403 6.255851 -1.844032 2.498504 -2.507277 -10.163599 4.678947 4.621108 -20.976023 -3e-06 1e-06 -21.226288 2.451697 -3.594001 1e-06 -6e-06 -1e-06 -1.362682 2.240799 -0.746324 -21.334915 0.584909 3.008322 -13.821215 -2e-06 2e-06 -23.887171 -0.24908 -0.839483 -60.147301 2.746569 -1.257522 -0.294024 1.679689 0.833256 -14.218208 0.093215 1.300579 -34.212048 -0.287564 0.967168 -20.033215 0.964536 1.212844 2e-06 -1e-06 1e-06 -3.440388 0.788235 0.501655 -15.928187 -3.167312 2.999708 -6.338827 -1e-06 2e-06 -18.123444 3.648184 -4.905672 -4e-06 0.0 -2e-06 15.617525 10.361604 15.476995 55.601105 12.751454 32.607044 0.528609 28.778124 0.153468 3.494244 -5.10413 -28.825947 2.243543 -5.255039 -3.180158 14.282894 -0.826597 6.9525 1e-06 -12.690605 -1e-06 16.14406 -17.686752 2.484316 1.665667 -1.955922 -2.878299 4.7278 -4.170588 4.993921 11.020528 1e-06 -3e-06 12.109056 -3.735718 -2.866787 -1e-06 0.0 0.0 1.291986 -1.92855 -1.498088 14.800131 0.567465 3.865603 14.242577 -1.341739 -6.660661 19.631969 0.143925 -0.648249 49.411995 -0.266698 -6.49686 0.353029 -1.511151 -0.031941 20.222795 3.684308 2.316626 18.787273 2e-06 -5e-06 10.751631 -0.479869 1.397903 -1e-06 0.0 2e-06 3.273807 0.305947 -0.58011 21.486813 11.830371 2.266131 8.162928 1e-06 -2e-06 18.399086 -3.798987 -4.940581 3e-06 0.0 -3e-06 10.623922 23.431347 6.734153 -0.017047 -0.130768 3.293512 -9.179078 5.05007 -2.389547 1.626897 -1.936763 -0.608693 0.0 1e-06 2e-06 -6.934163 -4.204344 1.894909 -0.024488 -0.028647 4.50071 9.205038 -6.822058 -1.990085 -1.401124 1.062376 -0.016349 0.0 0.0 -1e-06 
0.344177 0.0 -2.795875 0.0 -0.085914 0.0 0.0 99.779953 0.0 -0.342139 -0.026514 -4.389426 1.282717 -0.045944 -0.577658 -0.242043 0.185348 -5.077697 -0.988691 -1.136302 14.165284 -7.957853 6.496974 5.441791 2.79056 11.810818 -3.196674 -0.244539 14.288984 -7.038635 7.7e-05 -2.2e-05 6e-06 0.026571 -0.165269 -0.05905 0.825457 -3.905591 -10.722365 -0.776602 3.601535 -10.683917 -15.217418 -4.29058 11.908478 -57.348053 -3.023976 17.613728 0.224789 -39.801788 0.056034 1.904013 1.836958 -18.76697 -5.882114 9.861297 0.70259 -10.936885 -0.360575 7.156212 -1e-06 8.774833 -3e-06 -15.763669 17.768663 6.255372 -1.844035 2.498507 -2.507279 -10.163613 4.678951 4.621112 -20.976051 -4e-06 1e-06 -21.226315 2.4517 -3.594004 2e-06 -6e-06 -1e-06 -1.362684 2.240801 -0.746324 -21.334938 0.584912 3.008322 -13.821231 -2e-06 1e-06 -23.887196 -0.249078 -0.839487 -60.137993 2.809658 -1.228784 -0.294025 1.67969 0.833257 -14.218225 0.093216 1.30058 -34.212086 -0.287563 0.967167 -20.033236 0.964538 1.212844 0.0 -0.0 -1e-06 -3.440393 0.788235 0.501656 -15.928206 -3.167312 2.999708 -6.338834 -1e-06 0.0 -18.123468 3.648187 -4.905678 -5e-06 0.0 -1e-06 15.450165 10.406024 15.607794 55.231556 12.969972 32.616161 0.596216 29.570921 0.161267 3.734506 -5.004891 -29.662971 2.243544 -5.255041 -3.18016 14.282901 -0.826595 6.952507 -0.0 -12.690616 -1e-06 16.176321 -17.724722 2.468894 1.665668 -1.955922 -2.878301 4.727802 -4.170591 4.993928 11.020533 2e-06 -2e-06 12.10906 -3.735719 -2.866786 -0.0 0.0 -1e-06 1.291987 -1.928552 -1.49809 14.800139 0.567469 3.86561 14.242585 -1.341738 -6.660663 19.631985 0.143926 -0.648246 49.500057 -0.270307 -6.506015 0.353029 -1.511152 -0.031941 20.222805 3.684314 2.316631 18.787289 5e-06 -1e-06 10.751637 -0.479867 1.397907 -1e-06 0.0 1e-06 3.27381 0.305948 -0.580111 21.486828 11.830385 2.266134 8.162937 2e-06 -1e-06 18.399096 -3.798989 -4.940578 3e-06 1e-06 -3e-06 10.523524 23.218502 6.949732 -0.025847 -0.164849 2.887321 -9.159573 5.166326 -2.228735 1.629005 -1.970963 -0.670792 0.0 -0.0 2e-06 -6.996813 -4.192574 2.171718 -0.031258 -0.017048 4.037978 9.177032 -6.865619 -1.799795 -1.407761 1.045545 -0.01649 0.0 0.0 -1e-06 
0.385015 0.0 -2.76505 0.0 -0.078491 0.0 0.0 99.791412 0.0 -0.294449 -0.022733 -4.370586 1.323152 -0.043863 -0.63024 -0.210709 0.287279 -5.10973 -1.093396 -1.006999 14.236532 -8.859135 7.011951 5.841579 2.988964 12.374414 -3.190792 -0.427608 15.04799 -6.72415 7.7e-05 -2.4e-05 6e-06 0.028733 -0.160474 -0.061436 0.817486 -3.896097 -10.727239 -0.764873 3.602237 -10.681592 -15.307672 -4.140153 11.947934 -56.951462 -2.912668 16.787727 0.186469 -41.987244 0.002812 2.06583 1.959053 -19.405828 -5.88211 9.861292 0.70259 -10.936877 -0.360576 7.156209 1e-06 8.774831 -1e-06 -15.750596 17.789204 6.25515 -1.844034 2.498504 -2.507279 -10.163604 4.678948 4.62111 -20.976038 -7e-06 -1e-06 -21.226301 2.451694 -3.594004 1e-06 -6e-06 -1e-06 -1.362682 2.240799 -0.746325 -21.334929 0.584909 3.008322 -13.821219 -3e-06 0.0 -23.887182 -0.249083 -0.839485 -60.108692 2.85672 -1.284065 -0.294025 1.679689 0.833256 -14.218219 0.093215 1.300579 -34.212074 -0.287569 0.967168 -20.03323 0.964534 1.212842 2e-06 -0.0 -0.0 -3.440391 0.788234 0.501656 -15.928196 -3.167313 2.999707 -6.338831 -3e-06 0.0 -18.123457 3.648183 -4.905674 -5e-06 -0.0 -2e-06 15.201206 10.526465 15.720286 54.775017 13.392272 32.880112 0.715477 30.823414 0.197777 3.758038 -4.890077 -31.073484 2.243542 -5.255039 -3.18016 14.282896 -0.826594 6.952504 -2e-06 -12.690609 -2e-06 16.209402 -17.715609 2.472953 1.665667 -1.955922 -2.878299 4.727799 -4.170588 4.993925 11.020528 4e-06 -1e-06 12.109055 -3.735716 -2.866785 -1e-06 0.0 -2e-06 1.291986 -1.92855 -1.498089 14.800132 0.567468 3.86561 14.242579 -1.341736 -6.660659 19.631973 0.143927 -0.648245 49.506023 -0.300442 -6.535947 0.353029 -1.511151 -0.031938 20.222797 3.684312 2.316631 18.787279 4e-06 1e-06 10.751633 -0.479869 1.397906 0.0 1e-06 2e-06 3.273808 0.305949 -0.580113 21.48682 11.830382 2.266134 8.16293 2e-06 -1e-06 18.399088 -3.798986 -4.940578 4e-06 0.0 -3e-06 10.398479 23.024139 7.044899 -0.020185 -0.194702 2.673659 -9.092044 5.280952 -2.149902 1.631304 -1.992924 -0.671658 0.0 -0.0 2e-06 -7.074973 -4.131467 2.265693 -0.025079 -0.017281 3.877041 9.194429 -6.976032 -1.749681 -1.409477 1.052701 -0.022215 -0.0 -0.0 -1e-06 
0.41176 0.0 -2.754049 0.0 -0.089968 0.0 0.0 99.795746 0.0 -0.252195 -0.019381 -4.336251 1.357913 -0.040901 -0.667352 -0.177538 0.393726 -5.141941 -1.180279 -0.832519 14.311013 -9.847527 7.55518 6.261804 3.206511 13.028955 -3.172645 -0.597467 15.926478 -6.424829 7.7e-05 -2.3e-05 6e-06 0.03268 -0.167771 -0.0614 0.81183 -3.896782 -10.730979 -0.751869 3.588365 -10.682779 -15.336083 -4.014284 11.959824 -56.426517 -2.839526 15.901102 0.198595 -44.257652 -0.027807 2.320501 2.040802 -20.313448 -5.882106 9.861285 0.70259 -10.936869 -0.360574 7.156206 -2e-06 8.774825 -2e-06 -15.739915 17.774071 6.243136 -1.844032 2.498505 -2.507277 -10.163596 4.678947 4.621108 -20.976019 0.0 2e-06 -21.226284 2.451698 -3.594 0.0 -6e-06 -0.0 -1.362681 2.240798 -0.746322 -21.334906 0.584913 3.008324 -13.821211 -2e-06 3e-06 -23.887161 -0.249074 -0.839482 -60.083973 2.875881 -1.337802 -0.294025 1.679687 0.833256 -14.218205 0.093216 1.300581 -34.212044 -0.287558 0.96717 -20.033211 0.964538 1.212842 -0.0 0.0 -1e-06 -3.440388 0.788233 0.501657 -15.928183 -3.167309 2.999707 -6.338825 1e-06 -1e-06 -18.123444 3.648186 -4.905673 -4e-06 -0.0 -2e-06 14.843951 10.69193 15.822659 54.262966 14.115002 33.602726 0.735735 32.534485 0.207931 3.701957 -4.622971 -32.749413 2.243541 -5.255036 -3.180156 14.282885 -0.826594 6.952499 -0.0 -12.6906 0.0 16.247339 -17.701075 2.490949 1.665666 -1.95592 -2.878298 4.727797 -4.170585 4.99392 11.02052 1e-06 -1e-06 12.109048 -3.735714 -2.866784 0.0 0.0 -1e-06 1.291985 -1.928549 -1.498088 14.800122 0.567467 3.865607 14.242564 -1.341737 -6.660658 19.631958 0.143925 -0.648245 49.464275 -0.369034 -6.553335 0.353029 -1.511149 -0.031941 20.222782 3.684308 2.316629 18.787268 4e-06 -1e-06 10.751625 -0.479868 1.397905 -1e-06 1e-06 -0.0 3.273806 0.305946 -0.58011 21.486799 11.830368 2.266132 8.162922 1e-06 0.0 18.399075 -3.798982 -4.940577 4e-06 2e-06 -2e-06 10.277011 22.854197 7.045556 -0.01077 -0.222087 2.599343 -9.003314 5.446614 -2.14099 1.632372 -1.99554 -0.684705 -0.0 0.0 2e-06 -7.143254 -4.085818 2.229054 -0.018249 -0.028817 3.899607 9.26218 -7.061428 -1.771363 -1.408116 1.060625 -0.06779 0.0 0.0 -1e-06 
0.432484 0.0 -2.767583 0.0 -0.089054 0.0 0.0 99.796944 0.0 -0.216996 -0.016436 -4.266673 1.389018 -0.019923 -0.691164 -0.148231 0.511656 -5.17155 -1.271752 -0.657451 14.385888 -10.795433 8.067587 6.65508 3.425639 13.673407 -3.129108 -0.75932 16.771273 -6.232643 7.7e-05 -2.2e-05 6e-06 0.036435 -0.170596 -0.058643 0.807252 -3.892171 -10.724786 -0.740311 3.578078 -10.678339 -15.302524 -3.93152 11.951277 -55.755253 -2.908045 14.810796 0.16043 -46.402225 0.004008 2.667629 2.106735 -21.465481 -5.882111 9.861289 0.70259 -10.936878 -0.360575 7.156211 1e-06 8.774831 0.0 -15.704386 17.723696 6.22925 -1.844034 2.498506 -2.50728 -10.163608 4.678947 4.62111 -20.97604 -4e-06 -1e-06 -21.226301 2.451697 -3.594004 1e-06 -6e-06 -0.0 -1.362682 2.240799 -0.746324 -21.33493 0.58491 3.008323 -13.821223 -4e-06 1e-06 -23.887186 -0.249082 -0.839485 -60.030792 2.884295 -1.339339 -0.294025 1.679685 0.833256 -14.218219 0.093214 1.30058 -34.212074 -0.287565 0.96717 -20.033226 0.964537 1.212846 -0.0 0.0 -0.0 -3.440391 0.788235 0.501656 -15.9282 -3.16731 2.999708 -6.33883 0.0 1e-06 -18.123459 3.648185 -4.905674 -5e-06 -0.0 -3e-06 14.392756 10.929936 15.905994 53.757164 15.18744 34.490429 0.699447 34.574455 0.216908 3.503743 -4.149573 -34.61541 2.243544 -5.255041 -3.180159 14.282896 -0.826598 6.952507 1e-06 -12.690611 -0.0 16.277813 -17.65749 2.510187 1.665667 -1.955924 -2.878299 4.727801 -4.17059 4.993925 11.020531 -0.0 -0.0 12.109059 -3.735719 -2.866787 -1e-06 0.0 -0.0 1.291986 -1.92855 -1.49809 14.800132 0.567465 3.865609 14.24258 -1.34174 -6.660661 19.631973 0.143923 -0.648249 49.438225 -0.442984 -6.541511 0.35303 -1.511152 -0.031939 20.222801 3.684306 2.316629 18.787283 -0.0 -2e-06 10.751634 -0.479871 1.397905 1e-06 -0.0 -1e-06 3.273808 0.305946 -0.58011 21.486816 11.830376 2.266132 8.16293 -0.0 -1e-06 18.399094 -3.798991 -4.940581 4e-06 2e-06 -2e-06 10.145356 22.683338 6.928279 -0.001111 -0.239739 2.632245 -8.895572 5.605658 -2.176437 1.632664 -1.986645 -0.699869 0.0 1e-06 2e-06 -7.200135 -4.107308 2.083851 -0.011499 -0.032593 4.024078 9.38033 -7.119853 -1.82747 -1.406101 1.075623 -0.097995 -0.0 -0.0 -1e-06 
